<mxfile host="app.diagrams.net" modified="2023-10-05T07:25:53.573Z" agent="Mozilla/5.0 (Windows NT 10.0; Win64; x64) AppleWebKit/537.36 (KHTML, like Gecko) Chrome/117.0.0.0 Safari/537.36" etag="rtWizKrhOrcWyg1ar5Yp" version="22.0.1" type="github">
  <diagram name="Page-1" id="13e1069c-82ec-6db2-03f1-153e76fe0fe0">
    <mxGraphModel dx="2134" dy="734" grid="1" gridSize="10" guides="1" tooltips="1" connect="1" arrows="1" fold="1" page="1" pageScale="1" pageWidth="1100" pageHeight="850" background="none" math="0" shadow="0">
      <root>
        <mxCell id="0" />
        <mxCell id="1" parent="0" />
        <mxCell id="9SHDzmh_qrSMF86yC2MF-197" value="" style="rounded=1;whiteSpace=wrap;html=1;" vertex="1" parent="1">
          <mxGeometry x="-31" y="82" width="250" height="60" as="geometry" />
        </mxCell>
        <mxCell id="7baba1c4bc27f4b0-4" value="Команды" style="shape=umlLifeline;perimeter=lifelinePerimeter;whiteSpace=wrap;html=1;container=1;collapsible=0;recursiveResize=0;outlineConnect=0;rounded=1;shadow=0;comic=0;labelBackgroundColor=none;strokeWidth=1;fontFamily=Verdana;fontSize=12;align=center;" parent="1" vertex="1">
          <mxGeometry x="-22" y="91" width="102" height="1737" as="geometry" />
        </mxCell>
        <mxCell id="7baba1c4bc27f4b0-22" value="Команда" style="html=1;points=[];perimeter=orthogonalPerimeter;rounded=0;shadow=0;comic=0;labelBackgroundColor=none;strokeWidth=1;fontFamily=Verdana;fontSize=12;align=center;direction=north;rotation=-90;" parent="7baba1c4bc27f4b0-4" vertex="1">
          <mxGeometry x="-31.04" y="852.03" width="166.09" height="25" as="geometry" />
        </mxCell>
        <mxCell id="9SHDzmh_qrSMF86yC2MF-105" value="Список команд" style="html=1;points=[];perimeter=orthogonalPerimeter;rounded=0;shadow=0;comic=0;labelBackgroundColor=none;strokeWidth=1;fontFamily=Verdana;fontSize=12;align=center;direction=north;rotation=-90;" vertex="1" parent="7baba1c4bc27f4b0-4">
          <mxGeometry x="-5.52" y="698.64" width="115.07" height="25" as="geometry" />
        </mxCell>
        <mxCell id="9SHDzmh_qrSMF86yC2MF-112" value="Команда" style="html=1;points=[];perimeter=orthogonalPerimeter;rounded=0;shadow=0;comic=0;labelBackgroundColor=none;strokeWidth=1;fontFamily=Verdana;fontSize=12;align=center;direction=north;rotation=-90;" vertex="1" parent="7baba1c4bc27f4b0-4">
          <mxGeometry x="0.66" y="1028.45" width="102.7" height="25" as="geometry" />
        </mxCell>
        <mxCell id="9SHDzmh_qrSMF86yC2MF-113" value="Создание" style="html=1;verticalAlign=bottom;endArrow=block;curved=0;rounded=0;" edge="1" parent="7baba1c4bc27f4b0-4">
          <mxGeometry x="-0.1111" y="-1" width="80" relative="1" as="geometry">
            <mxPoint x="64" y="990" as="sourcePoint" />
            <mxPoint x="172" y="990" as="targetPoint" />
            <mxPoint as="offset" />
          </mxGeometry>
        </mxCell>
        <mxCell id="9SHDzmh_qrSMF86yC2MF-124" value="" style="endArrow=classic;startArrow=classic;html=1;rounded=0;" edge="1" parent="7baba1c4bc27f4b0-4">
          <mxGeometry width="50" height="50" relative="1" as="geometry">
            <mxPoint x="-108" y="1168" as="sourcePoint" />
            <mxPoint x="172" y="1168" as="targetPoint" />
          </mxGeometry>
        </mxCell>
        <mxCell id="9SHDzmh_qrSMF86yC2MF-126" value="" style="endArrow=classic;startArrow=classic;html=1;rounded=0;" edge="1" parent="7baba1c4bc27f4b0-4">
          <mxGeometry width="50" height="50" relative="1" as="geometry">
            <mxPoint x="-426.55499999999984" y="1267" as="sourcePoint" />
            <mxPoint x="170" y="1267" as="targetPoint" />
          </mxGeometry>
        </mxCell>
        <mxCell id="9SHDzmh_qrSMF86yC2MF-131" value="Команда" style="html=1;points=[];perimeter=orthogonalPerimeter;rounded=0;shadow=0;comic=0;labelBackgroundColor=none;strokeWidth=1;fontFamily=Verdana;fontSize=12;align=center;direction=north;rotation=-90;" vertex="1" parent="7baba1c4bc27f4b0-4">
          <mxGeometry x="15.47" y="1346.44" width="71.04" height="25" as="geometry" />
        </mxCell>
        <mxCell id="9SHDzmh_qrSMF86yC2MF-133" value="Создание" style="html=1;verticalAlign=bottom;endArrow=block;curved=0;rounded=0;" edge="1" parent="7baba1c4bc27f4b0-4">
          <mxGeometry x="0.0741" y="-9" width="80" relative="1" as="geometry">
            <mxPoint x="63" y="1324" as="sourcePoint" />
            <mxPoint x="171" y="1324" as="targetPoint" />
            <mxPoint as="offset" />
          </mxGeometry>
        </mxCell>
        <mxCell id="9SHDzmh_qrSMF86yC2MF-164" value="Команда" style="html=1;points=[];perimeter=orthogonalPerimeter;rounded=0;shadow=0;comic=0;labelBackgroundColor=none;strokeWidth=1;fontFamily=Verdana;fontSize=12;align=center;direction=north;rotation=-90;" vertex="1" parent="7baba1c4bc27f4b0-4">
          <mxGeometry x="9.37" y="1687.12" width="83.25" height="25" as="geometry" />
        </mxCell>
        <mxCell id="9SHDzmh_qrSMF86yC2MF-165" value="&lt;div style=&quot;direction: ltr;&quot;&gt;&lt;span style=&quot;background-color: initial;&quot;&gt;Матч&lt;/span&gt;&lt;/div&gt;" style="html=1;points=[];perimeter=orthogonalPerimeter;rounded=0;shadow=0;comic=0;labelBackgroundColor=none;strokeWidth=1;fontFamily=Verdana;fontSize=12;align=center;direction=west;rotation=-90;" vertex="1" parent="7baba1c4bc27f4b0-4">
          <mxGeometry x="45.84" y="1683.59" width="49.55" height="22.5" as="geometry" />
        </mxCell>
        <mxCell id="9SHDzmh_qrSMF86yC2MF-178" value="" style="html=1;verticalAlign=bottom;endArrow=block;curved=0;rounded=0;" edge="1" parent="7baba1c4bc27f4b0-4" source="7baba1c4bc27f4b0-5">
          <mxGeometry width="80" relative="1" as="geometry">
            <mxPoint x="45.84000000000003" y="1937" as="sourcePoint" />
            <mxPoint x="-107.84499999999991" y="1937" as="targetPoint" />
          </mxGeometry>
        </mxCell>
        <mxCell id="9SHDzmh_qrSMF86yC2MF-179" value="&lt;div style=&quot;direction: ltr;&quot;&gt;&lt;span style=&quot;background-color: initial;&quot;&gt;Соревнования&lt;/span&gt;&lt;/div&gt;" style="html=1;points=[];perimeter=orthogonalPerimeter;rounded=0;shadow=0;comic=0;labelBackgroundColor=none;strokeWidth=1;fontFamily=Verdana;fontSize=12;align=center;direction=west;rotation=-90;" vertex="1" parent="7baba1c4bc27f4b0-4">
          <mxGeometry x="23.64" y="1032.64" width="93.96" height="22.5" as="geometry" />
        </mxCell>
        <mxCell id="9SHDzmh_qrSMF86yC2MF-190" value="" style="html=1;verticalAlign=bottom;endArrow=open;dashed=1;endSize=8;curved=0;rounded=0;" edge="1" parent="7baba1c4bc27f4b0-4" target="9SHDzmh_qrSMF86yC2MF-179">
          <mxGeometry relative="1" as="geometry">
            <mxPoint x="172.62" y="1027.79" as="sourcePoint" />
            <mxPoint x="92.62" y="1027.79" as="targetPoint" />
          </mxGeometry>
        </mxCell>
        <mxCell id="7baba1c4bc27f4b0-5" value="Матчи" style="shape=umlLifeline;perimeter=lifelinePerimeter;whiteSpace=wrap;html=1;container=1;collapsible=0;recursiveResize=0;outlineConnect=0;rounded=1;shadow=0;comic=0;labelBackgroundColor=none;strokeWidth=1;fontFamily=Verdana;fontSize=12;align=center;" parent="1" vertex="1">
          <mxGeometry x="360" y="91" width="100" height="2047" as="geometry" />
        </mxCell>
        <mxCell id="9SHDzmh_qrSMF86yC2MF-148" value="Протокол матча" style="html=1;points=[];perimeter=orthogonalPerimeter;rounded=0;shadow=0;comic=0;labelBackgroundColor=none;strokeWidth=1;fontFamily=Verdana;fontSize=12;align=center;rotation=-90;" vertex="1" parent="7baba1c4bc27f4b0-5">
          <mxGeometry x="-211.47" y="1531.54" width="527.31" height="20" as="geometry" />
        </mxCell>
        <mxCell id="9SHDzmh_qrSMF86yC2MF-149" value="&lt;div style=&quot;direction: ltr;&quot;&gt;&lt;span style=&quot;background-color: initial;&quot;&gt;Тренеры сторона...&lt;/span&gt;&lt;/div&gt;" style="html=1;points=[];perimeter=orthogonalPerimeter;rounded=0;shadow=0;comic=0;labelBackgroundColor=none;strokeWidth=1;fontFamily=Verdana;fontSize=12;align=center;direction=west;rotation=-90;" vertex="1" parent="7baba1c4bc27f4b0-5">
          <mxGeometry x="6.94" y="1647.94" width="128" height="22.5" as="geometry" />
        </mxCell>
        <mxCell id="9SHDzmh_qrSMF86yC2MF-150" value="&lt;div style=&quot;direction: ltr;&quot;&gt;Спортсмены сторона...&lt;/div&gt;" style="html=1;points=[];perimeter=orthogonalPerimeter;rounded=0;shadow=0;comic=0;labelBackgroundColor=none;strokeWidth=1;fontFamily=Verdana;fontSize=12;align=center;direction=west;rotation=-90;" vertex="1" parent="7baba1c4bc27f4b0-5">
          <mxGeometry x="-10.3" y="1384.18" width="162.47" height="22.5" as="geometry" />
        </mxCell>
        <mxCell id="9SHDzmh_qrSMF86yC2MF-173" value="Протокол матча" style="html=1;points=[];perimeter=orthogonalPerimeter;rounded=0;shadow=0;comic=0;labelBackgroundColor=none;strokeWidth=1;fontFamily=Verdana;fontSize=12;align=center;rotation=-90;" vertex="1" parent="7baba1c4bc27f4b0-5">
          <mxGeometry x="-6.99" y="1870.01" width="118.37" height="20" as="geometry" />
        </mxCell>
        <mxCell id="9SHDzmh_qrSMF86yC2MF-174" value="&lt;div style=&quot;direction: ltr;&quot;&gt;&lt;span style=&quot;background-color: initial;&quot;&gt;События&lt;/span&gt;&lt;/div&gt;" style="html=1;points=[];perimeter=orthogonalPerimeter;rounded=0;shadow=0;comic=0;labelBackgroundColor=none;strokeWidth=1;fontFamily=Verdana;fontSize=12;align=center;direction=west;rotation=-90;" vertex="1" parent="7baba1c4bc27f4b0-5">
          <mxGeometry x="41.74" y="1872.21" width="58.41" height="22.5" as="geometry" />
        </mxCell>
        <mxCell id="9SHDzmh_qrSMF86yC2MF-191" value="Протокол матча" style="html=1;points=[];perimeter=orthogonalPerimeter;rounded=0;shadow=0;comic=0;labelBackgroundColor=none;strokeWidth=1;fontFamily=Verdana;fontSize=12;align=center;rotation=-90;" vertex="1" parent="7baba1c4bc27f4b0-5">
          <mxGeometry x="-6.000000000000009" y="2007" width="118.37" height="20" as="geometry" />
        </mxCell>
        <mxCell id="7baba1c4bc27f4b0-6" value="Справочники" style="shape=umlLifeline;perimeter=lifelinePerimeter;whiteSpace=wrap;html=1;container=1;collapsible=0;recursiveResize=0;outlineConnect=0;rounded=1;shadow=0;comic=0;labelBackgroundColor=none;strokeWidth=1;fontFamily=Verdana;fontSize=12;align=center;" parent="1" vertex="1">
          <mxGeometry x="500" y="91" width="102.2" height="667" as="geometry" />
        </mxCell>
        <mxCell id="9SHDzmh_qrSMF86yC2MF-11" value="Роль" style="html=1;points=[];perimeter=orthogonalPerimeter;rounded=0;shadow=0;comic=0;labelBackgroundColor=none;strokeWidth=1;fontFamily=Verdana;fontSize=12;align=center;rotation=-90;" vertex="1" parent="7baba1c4bc27f4b0-6">
          <mxGeometry x="33.5" y="91" width="35" height="20" as="geometry" />
        </mxCell>
        <mxCell id="9SHDzmh_qrSMF86yC2MF-96" value="Тип документа" style="html=1;points=[];perimeter=orthogonalPerimeter;rounded=0;shadow=0;comic=0;labelBackgroundColor=none;strokeWidth=1;fontFamily=Verdana;fontSize=12;align=center;rotation=-90;" vertex="1" parent="7baba1c4bc27f4b0-6">
          <mxGeometry x="-2.18" y="192.2" width="104.38" height="20" as="geometry" />
        </mxCell>
        <mxCell id="7baba1c4bc27f4b0-8" value="Персонал" style="shape=umlLifeline;perimeter=lifelinePerimeter;whiteSpace=wrap;html=1;container=1;collapsible=0;recursiveResize=0;outlineConnect=0;rounded=1;shadow=0;comic=0;labelBackgroundColor=none;strokeWidth=1;fontFamily=Verdana;fontSize=12;align=center;" parent="1" vertex="1">
          <mxGeometry x="-530" y="91" width="100" height="1797" as="geometry" />
        </mxCell>
        <mxCell id="9SHDzmh_qrSMF86yC2MF-28" value="&lt;div style=&quot;direction: ltr;&quot;&gt;&lt;span style=&quot;background-color: initial;&quot;&gt;Список персон&lt;/span&gt;&lt;/div&gt;" style="html=1;points=[];perimeter=orthogonalPerimeter;rounded=0;shadow=0;comic=0;labelBackgroundColor=none;strokeWidth=1;fontFamily=Verdana;fontSize=12;align=center;direction=west;rotation=-90;" vertex="1" parent="7baba1c4bc27f4b0-8">
          <mxGeometry x="-37.6" y="127.58" width="174.38" height="25" as="geometry" />
        </mxCell>
        <mxCell id="9SHDzmh_qrSMF86yC2MF-29" value="&lt;div style=&quot;direction: ltr;&quot;&gt;&lt;span style=&quot;background-color: initial;&quot;&gt;Карточка персоны&lt;/span&gt;&lt;/div&gt;" style="html=1;points=[];perimeter=orthogonalPerimeter;rounded=0;shadow=0;comic=0;labelBackgroundColor=none;strokeWidth=1;fontFamily=Verdana;fontSize=12;align=center;direction=west;rotation=-90;" vertex="1" parent="7baba1c4bc27f4b0-8">
          <mxGeometry x="-2.19" y="129.82" width="144.76" height="22.5" as="geometry" />
        </mxCell>
        <mxCell id="9SHDzmh_qrSMF86yC2MF-30" value="&lt;div style=&quot;direction: ltr;&quot;&gt;&lt;span style=&quot;background-color: initial;&quot;&gt;Документы&lt;/span&gt;&lt;/div&gt;" style="html=1;points=[];perimeter=orthogonalPerimeter;rounded=0;shadow=0;comic=0;labelBackgroundColor=none;strokeWidth=1;fontFamily=Verdana;fontSize=12;align=center;direction=west;rotation=-90;" vertex="1" parent="7baba1c4bc27f4b0-8">
          <mxGeometry x="50.1" y="150.6" width="80.2" height="22.5" as="geometry" />
        </mxCell>
        <mxCell id="9SHDzmh_qrSMF86yC2MF-31" value="" style="html=1;verticalAlign=bottom;endArrow=block;labelBackgroundColor=none;fontFamily=Verdana;fontSize=12;elbow=vertical;edgeStyle=orthogonalEdgeStyle;curved=1;" edge="1" parent="7baba1c4bc27f4b0-8">
          <mxGeometry relative="1" as="geometry">
            <mxPoint x="62.81999999999999" y="53" as="sourcePoint" />
            <mxPoint x="81.19999999999999" y="91" as="targetPoint" />
            <Array as="points">
              <mxPoint x="103.19999999999999" y="53" />
              <mxPoint x="103.19999999999999" y="91" />
            </Array>
          </mxGeometry>
        </mxCell>
        <mxCell id="9SHDzmh_qrSMF86yC2MF-32" value="" style="html=1;verticalAlign=bottom;endArrow=block;labelBackgroundColor=none;fontFamily=Verdana;fontSize=12;elbow=vertical;edgeStyle=orthogonalEdgeStyle;curved=1;" edge="1" parent="7baba1c4bc27f4b0-8">
          <mxGeometry relative="1" as="geometry">
            <mxPoint x="81.19999999999999" y="116" as="sourcePoint" />
            <mxPoint x="99.19999999999999" y="154" as="targetPoint" />
            <Array as="points">
              <mxPoint x="121.19999999999999" y="116" />
              <mxPoint x="121.19999999999999" y="154" />
            </Array>
          </mxGeometry>
        </mxCell>
        <mxCell id="9SHDzmh_qrSMF86yC2MF-8" value="" style="endArrow=classic;html=1;rounded=0;entryX=0.258;entryY=1.18;entryDx=0;entryDy=0;entryPerimeter=0;" edge="1" parent="7baba1c4bc27f4b0-8">
          <mxGeometry width="50" height="50" relative="1" as="geometry">
            <mxPoint x="-140.5" y="242" as="sourcePoint" />
            <mxPoint x="159.57999999999976" y="240.97424000000024" as="targetPoint" />
            <Array as="points">
              <mxPoint x="-54.429999999999986" y="242" />
            </Array>
          </mxGeometry>
        </mxCell>
        <mxCell id="9SHDzmh_qrSMF86yC2MF-9" value="Согласование" style="edgeLabel;html=1;align=center;verticalAlign=middle;resizable=0;points=[];" vertex="1" connectable="0" parent="9SHDzmh_qrSMF86yC2MF-8">
          <mxGeometry x="-0.5719" y="1" relative="1" as="geometry">
            <mxPoint x="37" y="1" as="offset" />
          </mxGeometry>
        </mxCell>
        <mxCell id="7baba1c4bc27f4b0-37" value="Тренер" style="html=1;points=[];perimeter=orthogonalPerimeter;rounded=0;shadow=0;comic=0;labelBackgroundColor=none;strokeWidth=1;fontFamily=Verdana;fontSize=12;align=center;rotation=-90;" parent="7baba1c4bc27f4b0-8" vertex="1">
          <mxGeometry x="-25.86" y="856.28" width="150.91" height="27.73" as="geometry" />
        </mxCell>
        <mxCell id="9SHDzmh_qrSMF86yC2MF-116" value="Тренер" style="html=1;points=[];perimeter=orthogonalPerimeter;rounded=0;shadow=0;comic=0;labelBackgroundColor=none;strokeWidth=1;fontFamily=Verdana;fontSize=12;align=center;rotation=-90;" vertex="1" parent="7baba1c4bc27f4b0-8">
          <mxGeometry x="-101.49" y="1129.24" width="302.97" height="27.73" as="geometry" />
        </mxCell>
        <mxCell id="9SHDzmh_qrSMF86yC2MF-125" value="&lt;div style=&quot;direction: ltr;&quot;&gt;&lt;span style=&quot;background-color: initial;&quot;&gt;Заявка&lt;/span&gt;&lt;/div&gt;" style="html=1;points=[];perimeter=orthogonalPerimeter;rounded=0;shadow=0;comic=0;labelBackgroundColor=none;strokeWidth=1;fontFamily=Verdana;fontSize=12;align=center;direction=west;rotation=-90;" vertex="1" parent="7baba1c4bc27f4b0-8">
          <mxGeometry x="45.63" y="1249.63" width="49.13" height="22.5" as="geometry" />
        </mxCell>
        <mxCell id="9SHDzmh_qrSMF86yC2MF-168" value="Тренер" style="html=1;points=[];perimeter=orthogonalPerimeter;rounded=0;shadow=0;comic=0;labelBackgroundColor=none;strokeWidth=1;fontFamily=Verdana;fontSize=12;align=center;rotation=-90;" vertex="1" parent="7baba1c4bc27f4b0-8">
          <mxGeometry x="11.12" y="1754.12" width="77.77" height="27.73" as="geometry" />
        </mxCell>
        <mxCell id="9SHDzmh_qrSMF86yC2MF-169" value="&lt;div style=&quot;direction: ltr;&quot;&gt;&lt;span style=&quot;background-color: initial;&quot;&gt;Матч&lt;/span&gt;&lt;/div&gt;" style="html=1;points=[];perimeter=orthogonalPerimeter;rounded=0;shadow=0;comic=0;labelBackgroundColor=none;strokeWidth=1;fontFamily=Verdana;fontSize=12;align=center;direction=west;rotation=-90;" vertex="1" parent="7baba1c4bc27f4b0-8">
          <mxGeometry x="45.209999999999994" y="1763" width="49.55" height="22.5" as="geometry" />
        </mxCell>
        <mxCell id="9SHDzmh_qrSMF86yC2MF-10" value="" style="endArrow=classic;html=1;rounded=0;entryX=0.671;entryY=-0.1;entryDx=0;entryDy=0;entryPerimeter=0;" edge="1" parent="1" target="9SHDzmh_qrSMF86yC2MF-11">
          <mxGeometry width="50" height="50" relative="1" as="geometry">
            <mxPoint x="-447" y="186" as="sourcePoint" />
            <mxPoint x="213" y="186" as="targetPoint" />
            <Array as="points">
              <mxPoint x="-253" y="186" />
            </Array>
          </mxGeometry>
        </mxCell>
        <mxCell id="9SHDzmh_qrSMF86yC2MF-199" value="Выбор роли персоны" style="edgeLabel;html=1;align=center;verticalAlign=middle;resizable=0;points=[];" vertex="1" connectable="0" parent="9SHDzmh_qrSMF86yC2MF-10">
          <mxGeometry x="-0.215" relative="1" as="geometry">
            <mxPoint as="offset" />
          </mxGeometry>
        </mxCell>
        <mxCell id="9SHDzmh_qrSMF86yC2MF-5" value="" style="endArrow=classic;html=1;rounded=0;entryX=0.006;entryY=0.923;entryDx=0;entryDy=0;entryPerimeter=0;" edge="1" parent="1" source="9SHDzmh_qrSMF86yC2MF-56" target="9SHDzmh_qrSMF86yC2MF-28">
          <mxGeometry width="50" height="50" relative="1" as="geometry">
            <mxPoint x="-790" y="291" as="sourcePoint" />
            <mxPoint x="-500" y="145.71" as="targetPoint" />
          </mxGeometry>
        </mxCell>
        <mxCell id="9SHDzmh_qrSMF86yC2MF-6" value="Добавление,&lt;br&gt;удаление,&lt;br&gt;обновление" style="edgeLabel;html=1;align=center;verticalAlign=middle;resizable=0;points=[];" vertex="1" connectable="0" parent="9SHDzmh_qrSMF86yC2MF-5">
          <mxGeometry x="-0.5719" y="1" relative="1" as="geometry">
            <mxPoint x="53" y="-3" as="offset" />
          </mxGeometry>
        </mxCell>
        <mxCell id="7baba1c4bc27f4b0-2" value="Переходы" style="shape=umlLifeline;perimeter=lifelinePerimeter;whiteSpace=wrap;html=1;container=1;collapsible=0;recursiveResize=0;outlineConnect=0;rounded=1;shadow=0;comic=0;labelBackgroundColor=none;strokeWidth=1;fontFamily=Verdana;fontSize=12;align=center;" parent="1" vertex="1">
          <mxGeometry x="-410" y="91" width="100" height="580" as="geometry" />
        </mxCell>
        <mxCell id="7baba1c4bc27f4b0-10" value="&lt;div style=&quot;direction: ltr;&quot;&gt;&lt;span style=&quot;background-color: initial;&quot;&gt;Спортсмены, переходящие в школу&lt;/span&gt;&lt;/div&gt;" style="html=1;points=[];perimeter=orthogonalPerimeter;rounded=0;shadow=0;comic=0;labelBackgroundColor=none;strokeWidth=1;fontFamily=Verdana;fontSize=12;align=center;direction=west;rotation=-90;" parent="7baba1c4bc27f4b0-2" vertex="1">
          <mxGeometry x="-96.6" y="422.66" width="295.26" height="25" as="geometry" />
        </mxCell>
        <mxCell id="9SHDzmh_qrSMF86yC2MF-18" value="&lt;div style=&quot;direction: ltr;&quot;&gt;&lt;span style=&quot;background-color: initial;&quot;&gt;Договор на переход&lt;/span&gt;&lt;/div&gt;" style="html=1;points=[];perimeter=orthogonalPerimeter;rounded=0;shadow=0;comic=0;labelBackgroundColor=none;strokeWidth=1;fontFamily=Verdana;fontSize=12;align=center;direction=west;rotation=-90;" vertex="1" parent="7baba1c4bc27f4b0-2">
          <mxGeometry x="6.88" y="351.13" width="128.5" height="22.5" as="geometry" />
        </mxCell>
        <mxCell id="9SHDzmh_qrSMF86yC2MF-48" value="&lt;div style=&quot;direction: ltr;&quot;&gt;&lt;span style=&quot;background-color: initial;&quot;&gt;Из школы&lt;/span&gt;&lt;/div&gt;" style="html=1;points=[];perimeter=orthogonalPerimeter;rounded=0;shadow=0;comic=0;labelBackgroundColor=none;strokeWidth=1;fontFamily=Verdana;fontSize=12;align=center;direction=west;rotation=-90;" vertex="1" parent="7baba1c4bc27f4b0-2">
          <mxGeometry x="13.97" y="230.49" width="74.07" height="25" as="geometry" />
        </mxCell>
        <mxCell id="9SHDzmh_qrSMF86yC2MF-20" value="&lt;div style=&quot;direction: ltr;&quot;&gt;&lt;span style=&quot;background-color: initial;&quot;&gt;Копии&amp;nbsp;&lt;/span&gt;&lt;span style=&quot;background-color: initial;&quot;&gt;документов&lt;/span&gt;&lt;/div&gt;" style="html=1;points=[];perimeter=orthogonalPerimeter;rounded=0;shadow=0;comic=0;labelBackgroundColor=none;strokeWidth=1;fontFamily=Verdana;fontSize=12;align=center;direction=west;rotation=-90;" vertex="1" parent="7baba1c4bc27f4b0-2">
          <mxGeometry x="10.93" y="496.51" width="121.63" height="25.49" as="geometry" />
        </mxCell>
        <mxCell id="9SHDzmh_qrSMF86yC2MF-26" value="" style="html=1;verticalAlign=bottom;endArrow=block;labelBackgroundColor=none;fontFamily=Verdana;fontSize=12;elbow=vertical;edgeStyle=orthogonalEdgeStyle;curved=1;" edge="1" parent="1">
          <mxGeometry relative="1" as="geometry">
            <mxPoint x="-345.37" y="379" as="sourcePoint" />
            <mxPoint x="-327.37" y="417" as="targetPoint" />
            <Array as="points">
              <mxPoint x="-305.37" y="379" />
              <mxPoint x="-305.37" y="417" />
            </Array>
          </mxGeometry>
        </mxCell>
        <mxCell id="9SHDzmh_qrSMF86yC2MF-27" value="" style="html=1;verticalAlign=bottom;endArrow=block;labelBackgroundColor=none;fontFamily=Verdana;fontSize=12;elbow=vertical;edgeStyle=orthogonalEdgeStyle;curved=1;" edge="1" parent="1">
          <mxGeometry relative="1" as="geometry">
            <mxPoint x="-344.37" y="526" as="sourcePoint" />
            <mxPoint x="-326.37" y="564" as="targetPoint" />
            <Array as="points">
              <mxPoint x="-304.37" y="526" />
              <mxPoint x="-304.37" y="564" />
            </Array>
          </mxGeometry>
        </mxCell>
        <mxCell id="9SHDzmh_qrSMF86yC2MF-56" value="" style="shape=umlLifeline;perimeter=lifelinePerimeter;whiteSpace=wrap;html=1;container=1;dropTarget=0;collapsible=0;recursiveResize=0;outlineConnect=0;portConstraint=eastwest;newEdgeStyle={&quot;curved&quot;:0,&quot;rounded&quot;:0};participant=umlActor;" vertex="1" parent="1">
          <mxGeometry x="-680" y="101" width="20" height="767" as="geometry" />
        </mxCell>
        <mxCell id="9SHDzmh_qrSMF86yC2MF-53" value="" style="endArrow=classic;html=1;rounded=0;entryX=0.258;entryY=1.18;entryDx=0;entryDy=0;entryPerimeter=0;" edge="1" parent="1">
          <mxGeometry width="50" height="50" relative="1" as="geometry">
            <mxPoint x="-670.5" y="381" as="sourcePoint" />
            <mxPoint x="-370.42000000000024" y="379.97424000000024" as="targetPoint" />
            <Array as="points">
              <mxPoint x="-584.4300000000001" y="381" />
            </Array>
          </mxGeometry>
        </mxCell>
        <mxCell id="9SHDzmh_qrSMF86yC2MF-54" value="Формирование&lt;br&gt;запроса&lt;br&gt;&amp;nbsp;на перевод" style="edgeLabel;html=1;align=center;verticalAlign=middle;resizable=0;points=[];" vertex="1" connectable="0" parent="9SHDzmh_qrSMF86yC2MF-53">
          <mxGeometry x="-0.5719" y="1" relative="1" as="geometry">
            <mxPoint x="39" y="-4" as="offset" />
          </mxGeometry>
        </mxCell>
        <mxCell id="9SHDzmh_qrSMF86yC2MF-57" style="edgeStyle=orthogonalEdgeStyle;rounded=0;orthogonalLoop=1;jettySize=auto;html=1;exitX=0.5;exitY=0.5;exitDx=0;exitDy=0;exitPerimeter=0;" edge="1" parent="1" source="9SHDzmh_qrSMF86yC2MF-2">
          <mxGeometry relative="1" as="geometry">
            <mxPoint x="-220" y="411" as="sourcePoint" />
            <mxPoint x="-326" y="427" as="targetPoint" />
            <Array as="points">
              <mxPoint x="-220" y="427" />
            </Array>
          </mxGeometry>
        </mxCell>
        <mxCell id="9SHDzmh_qrSMF86yC2MF-62" value="Согласование" style="edgeLabel;html=1;align=center;verticalAlign=middle;resizable=0;points=[];" vertex="1" connectable="0" parent="9SHDzmh_qrSMF86yC2MF-57">
          <mxGeometry x="0.1887" relative="1" as="geometry">
            <mxPoint x="6" y="-1" as="offset" />
          </mxGeometry>
        </mxCell>
        <mxCell id="9SHDzmh_qrSMF86yC2MF-63" value="" style="edgeStyle=orthogonalEdgeStyle;rounded=0;orthogonalLoop=1;jettySize=auto;html=1;" edge="1" parent="1">
          <mxGeometry relative="1" as="geometry">
            <mxPoint x="-220" y="506" as="sourcePoint" />
            <mxPoint x="-329.75534793814495" y="506" as="targetPoint" />
            <Array as="points">
              <mxPoint x="-291" y="506" />
              <mxPoint x="-291" y="506" />
            </Array>
          </mxGeometry>
        </mxCell>
        <mxCell id="9SHDzmh_qrSMF86yC2MF-64" value="Утверждение" style="edgeLabel;html=1;align=center;verticalAlign=middle;resizable=0;points=[];" vertex="1" connectable="0" parent="9SHDzmh_qrSMF86yC2MF-63">
          <mxGeometry x="0.0751" y="1" relative="1" as="geometry">
            <mxPoint as="offset" />
          </mxGeometry>
        </mxCell>
        <mxCell id="9SHDzmh_qrSMF86yC2MF-66" value="" style="endArrow=classic;html=1;rounded=0;entryX=0.79;entryY=1.006;entryDx=0;entryDy=0;entryPerimeter=0;" edge="1" parent="1" source="9SHDzmh_qrSMF86yC2MF-56" target="9SHDzmh_qrSMF86yC2MF-40">
          <mxGeometry width="50" height="50" relative="1" as="geometry">
            <mxPoint x="-670.5" y="827" as="sourcePoint" />
            <mxPoint x="-170" y="827" as="targetPoint" />
          </mxGeometry>
        </mxCell>
        <mxCell id="9SHDzmh_qrSMF86yC2MF-68" value="Добавление, удаление, обновление" style="edgeLabel;html=1;align=center;verticalAlign=middle;resizable=0;points=[];" vertex="1" connectable="0" parent="9SHDzmh_qrSMF86yC2MF-66">
          <mxGeometry x="-0.4741" relative="1" as="geometry">
            <mxPoint as="offset" />
          </mxGeometry>
        </mxCell>
        <mxCell id="9SHDzmh_qrSMF86yC2MF-70" value="" style="endArrow=classic;html=1;rounded=0;entryX=0.565;entryY=0.686;entryDx=0;entryDy=0;entryPerimeter=0;" edge="1" parent="1">
          <mxGeometry width="50" height="50" relative="1" as="geometry">
            <mxPoint x="-347" y="674" as="sourcePoint" />
            <mxPoint x="-177.01000000000022" y="674.0460000000003" as="targetPoint" />
          </mxGeometry>
        </mxCell>
        <mxCell id="9SHDzmh_qrSMF86yC2MF-71" value="Заявки" style="shape=umlLifeline;perimeter=lifelinePerimeter;whiteSpace=wrap;html=1;container=1;collapsible=0;recursiveResize=0;outlineConnect=0;rounded=1;shadow=0;comic=0;labelBackgroundColor=none;strokeWidth=1;fontFamily=Verdana;fontSize=12;align=center;" vertex="1" parent="1">
          <mxGeometry x="107" y="91" width="103" height="1569" as="geometry" />
        </mxCell>
        <mxCell id="9SHDzmh_qrSMF86yC2MF-111" value="Заявка на соревнования" style="html=1;points=[];perimeter=orthogonalPerimeter;rounded=0;shadow=0;comic=0;labelBackgroundColor=none;strokeWidth=1;fontFamily=Verdana;fontSize=12;align=center;rotation=-90;" vertex="1" parent="9SHDzmh_qrSMF86yC2MF-71">
          <mxGeometry x="-104" y="1130.71" width="314.39" height="20" as="geometry" />
        </mxCell>
        <mxCell id="9SHDzmh_qrSMF86yC2MF-108" value="Заявка на отборочные соревнования текущего сезона" style="html=1;points=[];perimeter=orthogonalPerimeter;rounded=0;shadow=0;comic=0;labelBackgroundColor=none;strokeWidth=1;fontFamily=Verdana;fontSize=12;align=center;rotation=-90;" vertex="1" parent="9SHDzmh_qrSMF86yC2MF-71">
          <mxGeometry x="-124.44" y="788.75" width="351.88" height="20" as="geometry" />
        </mxCell>
        <mxCell id="9SHDzmh_qrSMF86yC2MF-132" value="Заявка на игру" style="html=1;points=[];perimeter=orthogonalPerimeter;rounded=0;shadow=0;comic=0;labelBackgroundColor=none;strokeWidth=1;fontFamily=Verdana;fontSize=12;align=center;rotation=-90;" vertex="1" parent="9SHDzmh_qrSMF86yC2MF-71">
          <mxGeometry x="-98.09" y="1455.73" width="302.58" height="20" as="geometry" />
        </mxCell>
        <mxCell id="9SHDzmh_qrSMF86yC2MF-136" value="Добавление спортсмена в заявочный лист" style="html=1;verticalAlign=bottom;endArrow=block;curved=0;rounded=0;" edge="1" parent="9SHDzmh_qrSMF86yC2MF-71" source="9SHDzmh_qrSMF86yC2MF-202">
          <mxGeometry x="-0.0103" y="5" width="80" relative="1" as="geometry">
            <mxPoint x="39.950000000000045" y="1410" as="sourcePoint" />
            <mxPoint x="-257" y="1410" as="targetPoint" />
            <mxPoint as="offset" />
          </mxGeometry>
        </mxCell>
        <mxCell id="9SHDzmh_qrSMF86yC2MF-143" value="" style="endArrow=classic;html=1;rounded=0;entryX=0.01;entryY=0.614;entryDx=0;entryDy=0;entryPerimeter=0;" edge="1" parent="9SHDzmh_qrSMF86yC2MF-71">
          <mxGeometry width="50" height="50" relative="1" as="geometry">
            <mxPoint x="63" y="1298" as="sourcePoint" />
            <mxPoint x="124" y="1298" as="targetPoint" />
          </mxGeometry>
        </mxCell>
        <mxCell id="9SHDzmh_qrSMF86yC2MF-144" value="Печать" style="edgeLabel;html=1;align=center;verticalAlign=middle;resizable=0;points=[];" vertex="1" connectable="0" parent="9SHDzmh_qrSMF86yC2MF-143">
          <mxGeometry x="0.0164" relative="1" as="geometry">
            <mxPoint x="-4" as="offset" />
          </mxGeometry>
        </mxCell>
        <mxCell id="7baba1c4bc27f4b0-45" value="Заявка на соревнования&lt;br&gt;3 экземпляра:&lt;br&gt;школа&lt;br&gt;тренер&lt;br&gt;филиал ФХР" style="shape=note;whiteSpace=wrap;html=1;size=14;verticalAlign=top;align=left;spacingTop=-6;rounded=0;shadow=0;comic=0;labelBackgroundColor=none;strokeWidth=1;fontFamily=Verdana;fontSize=12" parent="9SHDzmh_qrSMF86yC2MF-71" vertex="1">
          <mxGeometry x="122.44000000000005" y="1298" width="100" height="97" as="geometry" />
        </mxCell>
        <mxCell id="9SHDzmh_qrSMF86yC2MF-201" value="&lt;div style=&quot;direction: ltr;&quot;&gt;&lt;span style=&quot;background-color: initial;&quot;&gt;Заявочный лист тр.&lt;/span&gt;&lt;/div&gt;" style="html=1;points=[];perimeter=orthogonalPerimeter;rounded=0;shadow=0;comic=0;labelBackgroundColor=none;strokeWidth=1;fontFamily=Verdana;fontSize=12;align=center;direction=west;rotation=-90;" vertex="1" parent="9SHDzmh_qrSMF86yC2MF-71">
          <mxGeometry x="7.41" y="1533.1" width="126.69" height="22.5" as="geometry" />
        </mxCell>
        <mxCell id="9SHDzmh_qrSMF86yC2MF-202" value="&lt;div style=&quot;direction: ltr;&quot;&gt;&lt;span style=&quot;background-color: initial;&quot;&gt;Заявочный лист сп.&lt;/span&gt;&lt;/div&gt;" style="html=1;points=[];perimeter=orthogonalPerimeter;rounded=0;shadow=0;comic=0;labelBackgroundColor=none;strokeWidth=1;fontFamily=Verdana;fontSize=12;align=center;direction=west;rotation=-90;" vertex="1" parent="9SHDzmh_qrSMF86yC2MF-71">
          <mxGeometry x="2.41" y="1382" width="136.69" height="22.5" as="geometry" />
        </mxCell>
        <mxCell id="9SHDzmh_qrSMF86yC2MF-204" value="&lt;div style=&quot;direction: ltr;&quot;&gt;&lt;span style=&quot;background-color: initial;&quot;&gt;Заявочный лист тр.&lt;/span&gt;&lt;/div&gt;" style="html=1;points=[];perimeter=orthogonalPerimeter;rounded=0;shadow=0;comic=0;labelBackgroundColor=none;strokeWidth=1;fontFamily=Verdana;fontSize=12;align=center;direction=west;rotation=-90;" vertex="1" parent="9SHDzmh_qrSMF86yC2MF-71">
          <mxGeometry x="7.41" y="1194" width="126.69" height="22.5" as="geometry" />
        </mxCell>
        <mxCell id="9SHDzmh_qrSMF86yC2MF-205" value="&lt;div style=&quot;direction: ltr;&quot;&gt;&lt;span style=&quot;background-color: initial;&quot;&gt;Заявочный лист сп.&lt;/span&gt;&lt;/div&gt;" style="html=1;points=[];perimeter=orthogonalPerimeter;rounded=0;shadow=0;comic=0;labelBackgroundColor=none;strokeWidth=1;fontFamily=Verdana;fontSize=12;align=center;direction=west;rotation=-90;" vertex="1" parent="9SHDzmh_qrSMF86yC2MF-71">
          <mxGeometry x="2.41" y="1049" width="136.69" height="22.5" as="geometry" />
        </mxCell>
        <mxCell id="9SHDzmh_qrSMF86yC2MF-39" value="Спортсмены" style="shape=umlLifeline;perimeter=lifelinePerimeter;whiteSpace=wrap;html=1;container=0;collapsible=0;recursiveResize=0;outlineConnect=0;rounded=1;shadow=0;comic=0;labelBackgroundColor=none;strokeWidth=1;fontFamily=Verdana;fontSize=12;align=center;" vertex="1" parent="1">
          <mxGeometry x="-216.37" y="91" width="106.37" height="1947" as="geometry" />
        </mxCell>
        <mxCell id="9SHDzmh_qrSMF86yC2MF-45" value="&lt;div style=&quot;direction: ltr;&quot;&gt;&lt;span style=&quot;background-color: initial;&quot;&gt;Документы&lt;/span&gt;&lt;/div&gt;" style="html=1;points=[];perimeter=orthogonalPerimeter;rounded=0;shadow=0;comic=0;labelBackgroundColor=none;strokeWidth=1;fontFamily=Verdana;fontSize=12;align=center;direction=west;rotation=-90;" vertex="1" parent="1">
          <mxGeometry x="-174.74" y="677.5" width="100" height="22.5" as="geometry" />
        </mxCell>
        <mxCell id="9SHDzmh_qrSMF86yC2MF-46" value="" style="html=1;verticalAlign=bottom;endArrow=block;labelBackgroundColor=none;fontFamily=Verdana;fontSize=12;elbow=vertical;edgeStyle=orthogonalEdgeStyle;curved=1;" edge="1" parent="1">
          <mxGeometry relative="1" as="geometry">
            <mxPoint x="-151.74" y="586" as="sourcePoint" />
            <mxPoint x="-133.74" y="624" as="targetPoint" />
            <Array as="points">
              <mxPoint x="-111.74000000000001" y="586" />
              <mxPoint x="-111.74000000000001" y="624" />
            </Array>
          </mxGeometry>
        </mxCell>
        <mxCell id="9SHDzmh_qrSMF86yC2MF-47" value="" style="html=1;verticalAlign=bottom;endArrow=block;labelBackgroundColor=none;fontFamily=Verdana;fontSize=12;elbow=vertical;edgeStyle=orthogonalEdgeStyle;curved=1;" edge="1" parent="1">
          <mxGeometry relative="1" as="geometry">
            <mxPoint x="-133.74" y="630" as="sourcePoint" />
            <mxPoint x="-115.74000000000001" y="668" as="targetPoint" />
            <Array as="points">
              <mxPoint x="-93.74000000000001" y="630" />
              <mxPoint x="-93.74000000000001" y="668" />
            </Array>
          </mxGeometry>
        </mxCell>
        <mxCell id="9SHDzmh_qrSMF86yC2MF-3" value="Филиал&lt;br&gt;ФХР" style="shape=umlActor;verticalLabelPosition=bottom;verticalAlign=top;html=1;outlineConnect=0;" vertex="1" parent="1">
          <mxGeometry x="-229" y="484" width="20" height="38" as="geometry" />
        </mxCell>
        <mxCell id="9SHDzmh_qrSMF86yC2MF-2" value="Другая&lt;br&gt;школа" style="shape=umlActor;verticalLabelPosition=bottom;verticalAlign=top;html=1;outlineConnect=0;" vertex="1" parent="1">
          <mxGeometry x="-230" y="405" width="20" height="40" as="geometry" />
        </mxCell>
        <mxCell id="9SHDzmh_qrSMF86yC2MF-40" value="&lt;div style=&quot;direction: ltr;&quot;&gt;&lt;span style=&quot;background-color: initial;&quot;&gt;Список спортсменов школы&lt;/span&gt;&lt;/div&gt;" style="html=1;points=[];perimeter=orthogonalPerimeter;rounded=0;shadow=0;comic=0;labelBackgroundColor=none;strokeWidth=1;fontFamily=Verdana;fontSize=12;align=center;direction=west;rotation=-90;" vertex="1" parent="1">
          <mxGeometry x="-257.97" y="665.4" width="185.21" height="25" as="geometry" />
        </mxCell>
        <mxCell id="9SHDzmh_qrSMF86yC2MF-43" value="&lt;div style=&quot;direction: ltr;&quot;&gt;&lt;span style=&quot;background-color: initial;&quot;&gt;Карточка спортсмена&lt;/span&gt;&lt;/div&gt;" style="html=1;points=[];perimeter=orthogonalPerimeter;rounded=0;shadow=0;comic=0;labelBackgroundColor=none;strokeWidth=1;fontFamily=Verdana;fontSize=12;align=center;direction=west;rotation=-90;" vertex="1" parent="1">
          <mxGeometry x="-215.37" y="670.25" width="141.25" height="22.5" as="geometry" />
        </mxCell>
        <mxCell id="9SHDzmh_qrSMF86yC2MF-74" value="" style="endArrow=classic;html=1;rounded=0;entryX=1.14;entryY=0.038;entryDx=0;entryDy=0;entryPerimeter=0;" edge="1" parent="1">
          <mxGeometry width="50" height="50" relative="1" as="geometry">
            <mxPoint x="-461.53999999999996" y="896.9999999999998" as="sourcePoint" />
            <mxPoint x="21.00500000000011" y="897.0139800000002" as="targetPoint" />
          </mxGeometry>
        </mxCell>
        <mxCell id="9SHDzmh_qrSMF86yC2MF-84" value="Назначение в команду" style="edgeLabel;html=1;align=center;verticalAlign=middle;resizable=0;points=[];" vertex="1" connectable="0" parent="9SHDzmh_qrSMF86yC2MF-74">
          <mxGeometry x="-0.1771" y="2" relative="1" as="geometry">
            <mxPoint as="offset" />
          </mxGeometry>
        </mxCell>
        <mxCell id="9SHDzmh_qrSMF86yC2MF-80" value="&lt;div style=&quot;direction: ltr;&quot;&gt;&lt;span style=&quot;background-color: initial;&quot;&gt;Документы&lt;/span&gt;&lt;/div&gt;" style="html=1;points=[];perimeter=orthogonalPerimeter;rounded=0;shadow=0;comic=0;labelBackgroundColor=none;strokeWidth=1;fontFamily=Verdana;fontSize=12;align=center;direction=west;rotation=-90;" vertex="1" parent="1">
          <mxGeometry x="-499.90999999999997" y="926" width="80.2" height="22.5" as="geometry" />
        </mxCell>
        <mxCell id="9SHDzmh_qrSMF86yC2MF-82" value="" style="endArrow=classic;html=1;rounded=0;entryX=0.94;entryY=0.99;entryDx=0;entryDy=0;entryPerimeter=0;" edge="1" parent="1">
          <mxGeometry width="50" height="50" relative="1" as="geometry">
            <mxPoint x="-670" y="870.9983000000001" as="sourcePoint" />
            <mxPoint x="19.50500000000011" y="870.9983000000001" as="targetPoint" />
          </mxGeometry>
        </mxCell>
        <mxCell id="9SHDzmh_qrSMF86yC2MF-83" value="Формирование команд" style="edgeLabel;html=1;align=center;verticalAlign=middle;resizable=0;points=[];" vertex="1" connectable="0" parent="9SHDzmh_qrSMF86yC2MF-82">
          <mxGeometry x="-0.4975" y="1" relative="1" as="geometry">
            <mxPoint x="-73" y="1" as="offset" />
          </mxGeometry>
        </mxCell>
        <mxCell id="9SHDzmh_qrSMF86yC2MF-87" value="&lt;div style=&quot;direction: ltr;&quot;&gt;Спортсмен&lt;/div&gt;" style="html=1;points=[];perimeter=orthogonalPerimeter;rounded=0;shadow=0;comic=0;labelBackgroundColor=none;strokeWidth=1;fontFamily=Verdana;fontSize=12;align=center;direction=west;rotation=-90;" vertex="1" parent="1">
          <mxGeometry x="-217.24" y="949.94" width="107.77" height="25" as="geometry" />
        </mxCell>
        <mxCell id="9SHDzmh_qrSMF86yC2MF-88" value="&lt;div style=&quot;direction: ltr;&quot;&gt;&lt;span style=&quot;background-color: initial;&quot;&gt;Документы&lt;/span&gt;&lt;/div&gt;" style="html=1;points=[];perimeter=orthogonalPerimeter;rounded=0;shadow=0;comic=0;labelBackgroundColor=none;strokeWidth=1;fontFamily=Verdana;fontSize=12;align=center;direction=west;rotation=-90;" vertex="1" parent="1">
          <mxGeometry x="-181.68" y="941.82" width="77.88" height="22.5" as="geometry" />
        </mxCell>
        <mxCell id="9SHDzmh_qrSMF86yC2MF-89" value="" style="endArrow=classic;html=1;rounded=0;entryX=0.94;entryY=0.517;entryDx=0;entryDy=0;entryPerimeter=0;exitX=0.242;exitY=-0.2;exitDx=0;exitDy=0;exitPerimeter=0;" edge="1" parent="1">
          <mxGeometry width="50" height="50" relative="1" as="geometry">
            <mxPoint x="-131.98999999999978" y="913.97696" as="sourcePoint" />
            <mxPoint x="20.00500000000011" y="914.00007" as="targetPoint" />
          </mxGeometry>
        </mxCell>
        <mxCell id="9SHDzmh_qrSMF86yC2MF-90" value="Договор на обучение" style="edgeLabel;html=1;align=center;verticalAlign=middle;resizable=0;points=[];" vertex="1" connectable="0" parent="9SHDzmh_qrSMF86yC2MF-89">
          <mxGeometry x="-0.0922" y="-2" relative="1" as="geometry">
            <mxPoint y="-2" as="offset" />
          </mxGeometry>
        </mxCell>
        <mxCell id="9SHDzmh_qrSMF86yC2MF-91" value="" style="endArrow=block;startArrow=block;endFill=1;startFill=1;html=1;rounded=0;" edge="1" parent="1">
          <mxGeometry width="160" relative="1" as="geometry">
            <mxPoint x="-150" y="1007" as="sourcePoint" />
            <mxPoint x="17.5" y="1007" as="targetPoint" />
          </mxGeometry>
        </mxCell>
        <mxCell id="9SHDzmh_qrSMF86yC2MF-94" value="" style="endArrow=block;startArrow=block;endFill=1;startFill=1;html=1;rounded=0;entryX=0.913;entryY=0.966;entryDx=0;entryDy=0;entryPerimeter=0;" edge="1" parent="1" target="9SHDzmh_qrSMF86yC2MF-87">
          <mxGeometry width="160" relative="1" as="geometry">
            <mxPoint x="-469" y="1006" as="sourcePoint" />
            <mxPoint x="-180" y="1006" as="targetPoint" />
          </mxGeometry>
        </mxCell>
        <mxCell id="9SHDzmh_qrSMF86yC2MF-97" value="" style="html=1;verticalAlign=bottom;endArrow=block;curved=0;rounded=0;exitX=0.602;exitY=0.064;exitDx=0;exitDy=0;exitPerimeter=0;" edge="1" parent="1" source="9SHDzmh_qrSMF86yC2MF-30">
          <mxGeometry width="80" relative="1" as="geometry">
            <mxPoint y="391" as="sourcePoint" />
            <mxPoint x="540" y="261" as="targetPoint" />
          </mxGeometry>
        </mxCell>
        <mxCell id="9SHDzmh_qrSMF86yC2MF-200" value="Выбор типа документа" style="edgeLabel;html=1;align=center;verticalAlign=middle;resizable=0;points=[];" vertex="1" connectable="0" parent="9SHDzmh_qrSMF86yC2MF-97">
          <mxGeometry x="-0.2784" y="-2" relative="1" as="geometry">
            <mxPoint as="offset" />
          </mxGeometry>
        </mxCell>
        <mxCell id="9SHDzmh_qrSMF86yC2MF-98" value="Тип документа" style="html=1;points=[];perimeter=orthogonalPerimeter;rounded=0;shadow=0;comic=0;labelBackgroundColor=none;strokeWidth=1;fontFamily=Verdana;fontSize=12;align=center;rotation=-90;" vertex="1" parent="1">
          <mxGeometry x="498.82000000000016" y="700" width="104.38" height="20" as="geometry" />
        </mxCell>
        <mxCell id="9SHDzmh_qrSMF86yC2MF-99" value="" style="html=1;verticalAlign=bottom;endArrow=open;dashed=1;endSize=8;curved=0;rounded=0;exitX=0.569;exitY=-0.201;exitDx=0;exitDy=0;exitPerimeter=0;entryX=0.851;entryY=-0.069;entryDx=0;entryDy=0;entryPerimeter=0;" edge="1" parent="1" source="9SHDzmh_qrSMF86yC2MF-96" target="9SHDzmh_qrSMF86yC2MF-30">
          <mxGeometry relative="1" as="geometry">
            <mxPoint x="80" y="421" as="sourcePoint" />
            <mxPoint y="421" as="targetPoint" />
          </mxGeometry>
        </mxCell>
        <mxCell id="9SHDzmh_qrSMF86yC2MF-100" value="" style="html=1;verticalAlign=bottom;endArrow=open;dashed=1;endSize=8;curved=0;rounded=0;exitX=0.243;exitY=0;exitDx=0;exitDy=0;exitPerimeter=0;" edge="1" parent="1" source="9SHDzmh_qrSMF86yC2MF-11">
          <mxGeometry relative="1" as="geometry">
            <mxPoint x="80" y="421" as="sourcePoint" />
            <mxPoint x="-450" y="201" as="targetPoint" />
          </mxGeometry>
        </mxCell>
        <mxCell id="9SHDzmh_qrSMF86yC2MF-101" value="" style="html=1;verticalAlign=bottom;endArrow=block;curved=0;rounded=0;" edge="1" parent="1">
          <mxGeometry width="80" relative="1" as="geometry">
            <mxPoint x="-110" y="691" as="sourcePoint" />
            <mxPoint x="540" y="691" as="targetPoint" />
          </mxGeometry>
        </mxCell>
        <mxCell id="9SHDzmh_qrSMF86yC2MF-198" value="Выбор типа документа" style="edgeLabel;html=1;align=center;verticalAlign=middle;resizable=0;points=[];" vertex="1" connectable="0" parent="9SHDzmh_qrSMF86yC2MF-101">
          <mxGeometry x="0.1138" y="-2" relative="1" as="geometry">
            <mxPoint y="-2" as="offset" />
          </mxGeometry>
        </mxCell>
        <mxCell id="9SHDzmh_qrSMF86yC2MF-102" value="" style="html=1;verticalAlign=bottom;endArrow=open;dashed=1;endSize=8;curved=0;rounded=0;" edge="1" parent="1">
          <mxGeometry relative="1" as="geometry">
            <mxPoint x="540" y="711" as="sourcePoint" />
            <mxPoint x="-110" y="711" as="targetPoint" />
          </mxGeometry>
        </mxCell>
        <mxCell id="9SHDzmh_qrSMF86yC2MF-106" value="" style="endArrow=classic;html=1;rounded=0;entryX=0.94;entryY=0.99;entryDx=0;entryDy=0;entryPerimeter=0;" edge="1" parent="1">
          <mxGeometry width="50" height="50" relative="1" as="geometry">
            <mxPoint x="-670" y="801" as="sourcePoint" />
            <mxPoint x="19" y="801" as="targetPoint" />
          </mxGeometry>
        </mxCell>
        <mxCell id="9SHDzmh_qrSMF86yC2MF-107" value="Добавление, удаление, обновление" style="edgeLabel;html=1;align=center;verticalAlign=middle;resizable=0;points=[];" vertex="1" connectable="0" parent="9SHDzmh_qrSMF86yC2MF-106">
          <mxGeometry x="-0.4975" y="1" relative="1" as="geometry">
            <mxPoint x="-41" y="1" as="offset" />
          </mxGeometry>
        </mxCell>
        <mxCell id="9SHDzmh_qrSMF86yC2MF-109" value="Генерация" style="html=1;verticalAlign=bottom;endArrow=block;curved=0;rounded=0;" edge="1" parent="1">
          <mxGeometry x="0.0741" y="-9" width="80" relative="1" as="geometry">
            <mxPoint x="42" y="802" as="sourcePoint" />
            <mxPoint x="150" y="802" as="targetPoint" />
            <mxPoint as="offset" />
          </mxGeometry>
        </mxCell>
        <mxCell id="9SHDzmh_qrSMF86yC2MF-118" value="Добавление спортсмена в заявочный лист" style="html=1;verticalAlign=bottom;endArrow=block;curved=0;rounded=0;exitX=0.879;exitY=0.934;exitDx=0;exitDy=0;exitPerimeter=0;" edge="1" parent="1" source="9SHDzmh_qrSMF86yC2MF-205">
          <mxGeometry x="-0.0126" y="5" width="80" relative="1" as="geometry">
            <mxPoint x="146.95000000000005" y="1204" as="sourcePoint" />
            <mxPoint x="-150" y="1204" as="targetPoint" />
            <mxPoint as="offset" />
          </mxGeometry>
        </mxCell>
        <mxCell id="9SHDzmh_qrSMF86yC2MF-119" value="" style="endArrow=block;startArrow=block;endFill=1;startFill=1;html=1;rounded=0;" edge="1" parent="1">
          <mxGeometry width="160" relative="1" as="geometry">
            <mxPoint x="-469.00000000000045" y="1101" as="sourcePoint" />
            <mxPoint x="17.539999999999964" y="1102" as="targetPoint" />
            <Array as="points">
              <mxPoint x="-72.46000000000004" y="1101" />
            </Array>
          </mxGeometry>
        </mxCell>
        <mxCell id="9SHDzmh_qrSMF86yC2MF-120" value="" style="endArrow=block;startArrow=block;endFill=1;startFill=1;html=1;rounded=0;" edge="1" parent="1" source="9SHDzmh_qrSMF86yC2MF-114">
          <mxGeometry width="160" relative="1" as="geometry">
            <mxPoint x="-150" y="1151" as="sourcePoint" />
            <mxPoint x="17.5" y="1151" as="targetPoint" />
          </mxGeometry>
        </mxCell>
        <mxCell id="9SHDzmh_qrSMF86yC2MF-122" value="" style="endArrow=block;startArrow=block;endFill=1;startFill=1;html=1;rounded=0;" edge="1" parent="1" target="9SHDzmh_qrSMF86yC2MF-114">
          <mxGeometry width="160" relative="1" as="geometry">
            <mxPoint x="-150" y="1151" as="sourcePoint" />
            <mxPoint x="17.5" y="1151" as="targetPoint" />
          </mxGeometry>
        </mxCell>
        <mxCell id="9SHDzmh_qrSMF86yC2MF-114" value="&lt;div style=&quot;direction: ltr;&quot;&gt;Спортсмен&lt;/div&gt;" style="html=1;points=[];perimeter=orthogonalPerimeter;rounded=0;shadow=0;comic=0;labelBackgroundColor=none;strokeWidth=1;fontFamily=Verdana;fontSize=12;align=center;direction=west;rotation=-90;" vertex="1" parent="1">
          <mxGeometry x="-246.8" y="1185.42" width="171.6" height="25" as="geometry" />
        </mxCell>
        <mxCell id="9SHDzmh_qrSMF86yC2MF-123" value="&lt;div style=&quot;direction: ltr;&quot;&gt;&lt;span style=&quot;background-color: initial;&quot;&gt;Заявка&lt;/span&gt;&lt;/div&gt;" style="html=1;points=[];perimeter=orthogonalPerimeter;rounded=0;shadow=0;comic=0;labelBackgroundColor=none;strokeWidth=1;fontFamily=Verdana;fontSize=12;align=center;direction=west;rotation=-90;" vertex="1" parent="1">
          <mxGeometry x="-173.58" y="1238.1" width="61.68" height="22.5" as="geometry" />
        </mxCell>
        <mxCell id="9SHDzmh_qrSMF86yC2MF-128" value="Тренер" style="html=1;points=[];perimeter=orthogonalPerimeter;rounded=0;shadow=0;comic=0;labelBackgroundColor=none;strokeWidth=1;fontFamily=Verdana;fontSize=12;align=center;rotation=-90;" vertex="1" parent="1">
          <mxGeometry x="-628.17" y="1542.83" width="295.53" height="27.73" as="geometry" />
        </mxCell>
        <mxCell id="9SHDzmh_qrSMF86yC2MF-129" value="&lt;div style=&quot;direction: ltr;&quot;&gt;Спортсмен&lt;/div&gt;" style="html=1;points=[];perimeter=orthogonalPerimeter;rounded=0;shadow=0;comic=0;labelBackgroundColor=none;strokeWidth=1;fontFamily=Verdana;fontSize=12;align=center;direction=west;rotation=-90;" vertex="1" parent="1">
          <mxGeometry x="-245.78000000000003" y="1501" width="165.2" height="25" as="geometry" />
        </mxCell>
        <mxCell id="9SHDzmh_qrSMF86yC2MF-130" value="&lt;div style=&quot;direction: ltr;&quot;&gt;&lt;span style=&quot;background-color: initial;&quot;&gt;Заявка&lt;/span&gt;&lt;/div&gt;" style="html=1;points=[];perimeter=orthogonalPerimeter;rounded=0;shadow=0;comic=0;labelBackgroundColor=none;strokeWidth=1;fontFamily=Verdana;fontSize=12;align=center;direction=west;rotation=-90;" vertex="1" parent="1">
          <mxGeometry x="-183.86" y="1541.78" width="77.88" height="22.5" as="geometry" />
        </mxCell>
        <mxCell id="9SHDzmh_qrSMF86yC2MF-134" value="" style="endArrow=block;startArrow=block;endFill=1;startFill=1;html=1;rounded=0;" edge="1" parent="1">
          <mxGeometry width="160" relative="1" as="geometry">
            <mxPoint x="-470.00000000000045" y="1421" as="sourcePoint" />
            <mxPoint x="16.539999999999964" y="1422" as="targetPoint" />
            <Array as="points">
              <mxPoint x="-73.46000000000004" y="1421" />
            </Array>
          </mxGeometry>
        </mxCell>
        <mxCell id="9SHDzmh_qrSMF86yC2MF-135" value="" style="endArrow=block;startArrow=block;endFill=1;startFill=1;html=1;rounded=0;" edge="1" parent="1">
          <mxGeometry width="160" relative="1" as="geometry">
            <mxPoint x="-150" y="1441" as="sourcePoint" />
            <mxPoint x="15.5" y="1441" as="targetPoint" />
          </mxGeometry>
        </mxCell>
        <mxCell id="9SHDzmh_qrSMF86yC2MF-137" value="" style="endArrow=classic;startArrow=classic;html=1;rounded=0;" edge="1" parent="1">
          <mxGeometry width="50" height="50" relative="1" as="geometry">
            <mxPoint x="-130" y="1561" as="sourcePoint" />
            <mxPoint x="150" y="1561" as="targetPoint" />
          </mxGeometry>
        </mxCell>
        <mxCell id="9SHDzmh_qrSMF86yC2MF-138" value="Добавление тренера в заявочный лист" style="html=1;verticalAlign=bottom;endArrow=block;curved=0;rounded=0;entryX=0.016;entryY=1.077;entryDx=0;entryDy=0;entryPerimeter=0;" edge="1" parent="1" source="9SHDzmh_qrSMF86yC2MF-201">
          <mxGeometry width="80" relative="1" as="geometry">
            <mxPoint x="148.95000000000005" y="1618" as="sourcePoint" />
            <mxPoint x="-462.00478999999996" y="1620.7696800000003" as="targetPoint" />
          </mxGeometry>
        </mxCell>
        <mxCell id="9SHDzmh_qrSMF86yC2MF-139" value="" style="endArrow=classic;startArrow=classic;html=1;rounded=0;" edge="1" parent="1">
          <mxGeometry width="50" height="50" relative="1" as="geometry">
            <mxPoint x="-450" y="1651" as="sourcePoint" />
            <mxPoint x="147" y="1651" as="targetPoint" />
          </mxGeometry>
        </mxCell>
        <mxCell id="9SHDzmh_qrSMF86yC2MF-127" value="&lt;div style=&quot;direction: ltr;&quot;&gt;&lt;span style=&quot;background-color: initial;&quot;&gt;Заявка&lt;/span&gt;&lt;/div&gt;" style="html=1;points=[];perimeter=orthogonalPerimeter;rounded=0;shadow=0;comic=0;labelBackgroundColor=none;strokeWidth=1;fontFamily=Verdana;fontSize=12;align=center;direction=west;rotation=-90;" vertex="1" parent="1">
          <mxGeometry x="-489.58000000000004" y="1655.72" width="58.72" height="22.5" as="geometry" />
        </mxCell>
        <mxCell id="9SHDzmh_qrSMF86yC2MF-142" value="" style="endArrow=classic;startArrow=classic;html=1;rounded=0;" edge="1" parent="1">
          <mxGeometry width="50" height="50" relative="1" as="geometry">
            <mxPoint x="-470" y="1028" as="sourcePoint" />
            <mxPoint x="20" y="1028" as="targetPoint" />
            <Array as="points">
              <mxPoint x="-50" y="1028" />
            </Array>
          </mxGeometry>
        </mxCell>
        <mxCell id="9SHDzmh_qrSMF86yC2MF-146" value="" style="endArrow=classic;html=1;rounded=0;entryX=0.01;entryY=0.614;entryDx=0;entryDy=0;entryPerimeter=0;" edge="1" parent="1">
          <mxGeometry width="50" height="50" relative="1" as="geometry">
            <mxPoint x="170" y="1707" as="sourcePoint" />
            <mxPoint x="231" y="1707" as="targetPoint" />
          </mxGeometry>
        </mxCell>
        <mxCell id="9SHDzmh_qrSMF86yC2MF-147" value="Печать" style="edgeLabel;html=1;align=center;verticalAlign=middle;resizable=0;points=[];" vertex="1" connectable="0" parent="9SHDzmh_qrSMF86yC2MF-146">
          <mxGeometry x="0.0164" relative="1" as="geometry">
            <mxPoint x="-3" as="offset" />
          </mxGeometry>
        </mxCell>
        <mxCell id="9SHDzmh_qrSMF86yC2MF-151" value="" style="endArrow=classic;html=1;rounded=0;" edge="1" parent="1">
          <mxGeometry width="50" height="50" relative="1" as="geometry">
            <mxPoint x="170" y="1371" as="sourcePoint" />
            <mxPoint x="400" y="1371" as="targetPoint" />
          </mxGeometry>
        </mxCell>
        <mxCell id="9SHDzmh_qrSMF86yC2MF-152" value="Списки&amp;nbsp; спортсменов и тренеров" style="edgeLabel;html=1;align=center;verticalAlign=middle;resizable=0;points=[];" vertex="1" connectable="0" parent="9SHDzmh_qrSMF86yC2MF-151">
          <mxGeometry x="-0.0087" y="-1" relative="1" as="geometry">
            <mxPoint y="-2" as="offset" />
          </mxGeometry>
        </mxCell>
        <mxCell id="9SHDzmh_qrSMF86yC2MF-153" value="Секретарь" style="shape=umlActor;verticalLabelPosition=bottom;verticalAlign=top;html=1;outlineConnect=0;" vertex="1" parent="1">
          <mxGeometry x="239" y="1730" width="25" height="40" as="geometry" />
        </mxCell>
        <mxCell id="9SHDzmh_qrSMF86yC2MF-155" value="" style="endArrow=classic;html=1;rounded=0;entryX=0.5;entryY=0;entryDx=0;entryDy=0;entryPerimeter=0;" edge="1" parent="1" target="9SHDzmh_qrSMF86yC2MF-153">
          <mxGeometry width="50" height="50" relative="1" as="geometry">
            <mxPoint x="252" y="1710" as="sourcePoint" />
            <mxPoint x="490" y="1658" as="targetPoint" />
          </mxGeometry>
        </mxCell>
        <mxCell id="9SHDzmh_qrSMF86yC2MF-158" value="" style="endArrow=classic;html=1;rounded=0;" edge="1" parent="1" source="9SHDzmh_qrSMF86yC2MF-153" target="9SHDzmh_qrSMF86yC2MF-148">
          <mxGeometry width="50" height="50" relative="1" as="geometry">
            <mxPoint x="440" y="1708" as="sourcePoint" />
            <mxPoint x="490" y="1658" as="targetPoint" />
          </mxGeometry>
        </mxCell>
        <mxCell id="9SHDzmh_qrSMF86yC2MF-159" value="Корректирует списки" style="edgeLabel;html=1;align=center;verticalAlign=middle;resizable=0;points=[];" vertex="1" connectable="0" parent="9SHDzmh_qrSMF86yC2MF-158">
          <mxGeometry x="-0.3048" y="1" relative="1" as="geometry">
            <mxPoint x="18" as="offset" />
          </mxGeometry>
        </mxCell>
        <mxCell id="9SHDzmh_qrSMF86yC2MF-160" value="Врач" style="shape=umlActor;verticalLabelPosition=bottom;verticalAlign=top;html=1;outlineConnect=0;" vertex="1" parent="1">
          <mxGeometry x="264" y="1523" width="20" height="33.78" as="geometry" />
        </mxCell>
        <mxCell id="9SHDzmh_qrSMF86yC2MF-162" value="" style="endArrow=classic;html=1;rounded=0;entryX=0.5;entryY=1;entryDx=0;entryDy=0;entryPerimeter=0;exitX=0.75;exitY=0.1;exitDx=0;exitDy=0;exitPerimeter=0;" edge="1" parent="1">
          <mxGeometry width="50" height="50" relative="1" as="geometry">
            <mxPoint x="274" y="1524.3780000000002" as="sourcePoint" />
            <mxPoint x="274.44000000000005" y="1486" as="targetPoint" />
          </mxGeometry>
        </mxCell>
        <mxCell id="9SHDzmh_qrSMF86yC2MF-163" value="Подтверждает" style="edgeLabel;html=1;align=center;verticalAlign=middle;resizable=0;points=[];" vertex="1" connectable="0" parent="9SHDzmh_qrSMF86yC2MF-162">
          <mxGeometry x="-0.1987" relative="1" as="geometry">
            <mxPoint as="offset" />
          </mxGeometry>
        </mxCell>
        <mxCell id="9SHDzmh_qrSMF86yC2MF-166" value="&lt;div style=&quot;direction: ltr;&quot;&gt;Спортсмен&lt;/div&gt;" style="html=1;points=[];perimeter=orthogonalPerimeter;rounded=0;shadow=0;comic=0;labelBackgroundColor=none;strokeWidth=1;fontFamily=Verdana;fontSize=12;align=center;direction=west;rotation=-90;" vertex="1" parent="1">
          <mxGeometry x="-201.8" y="1810.2" width="81.6" height="25" as="geometry" />
        </mxCell>
        <mxCell id="9SHDzmh_qrSMF86yC2MF-167" value="&lt;div style=&quot;direction: ltr;&quot;&gt;&lt;span style=&quot;background-color: initial;&quot;&gt;Матч&lt;/span&gt;&lt;/div&gt;" style="html=1;points=[];perimeter=orthogonalPerimeter;rounded=0;shadow=0;comic=0;labelBackgroundColor=none;strokeWidth=1;fontFamily=Verdana;fontSize=12;align=center;direction=west;rotation=-90;" vertex="1" parent="1">
          <mxGeometry x="-164.39999999999998" y="1822" width="44.2" height="22.5" as="geometry" />
        </mxCell>
        <mxCell id="9SHDzmh_qrSMF86yC2MF-170" value="" style="html=1;verticalAlign=bottom;endArrow=open;dashed=1;endSize=8;curved=0;rounded=0;entryX=0.806;entryY=-0.006;entryDx=0;entryDy=0;entryPerimeter=0;" edge="1" parent="1" target="9SHDzmh_qrSMF86yC2MF-165">
          <mxGeometry relative="1" as="geometry">
            <mxPoint x="400" y="1801" as="sourcePoint" />
            <mxPoint x="70" y="1801" as="targetPoint" />
            <Array as="points">
              <mxPoint x="171.5" y="1801.2" />
            </Array>
          </mxGeometry>
        </mxCell>
        <mxCell id="9SHDzmh_qrSMF86yC2MF-171" value="" style="html=1;verticalAlign=bottom;endArrow=open;dashed=1;endSize=8;curved=0;rounded=0;" edge="1" parent="1">
          <mxGeometry relative="1" as="geometry">
            <mxPoint x="400" y="1851" as="sourcePoint" />
            <mxPoint x="-130" y="1851" as="targetPoint" />
          </mxGeometry>
        </mxCell>
        <mxCell id="9SHDzmh_qrSMF86yC2MF-172" value="" style="html=1;verticalAlign=bottom;endArrow=open;dashed=1;endSize=8;curved=0;rounded=0;" edge="1" parent="1">
          <mxGeometry relative="1" as="geometry">
            <mxPoint x="399.5" y="1886" as="sourcePoint" />
            <mxPoint x="-450" y="1886" as="targetPoint" />
          </mxGeometry>
        </mxCell>
        <mxCell id="9SHDzmh_qrSMF86yC2MF-175" value="Фиксирует&lt;br&gt;в процессе&amp;nbsp;&lt;br&gt;игры" style="html=1;verticalAlign=bottom;endArrow=block;curved=0;rounded=0;" edge="1" parent="1" target="9SHDzmh_qrSMF86yC2MF-173">
          <mxGeometry width="80" relative="1" as="geometry">
            <mxPoint x="250" y="1790" as="sourcePoint" />
            <mxPoint x="400" y="1968" as="targetPoint" />
            <Array as="points">
              <mxPoint x="250" y="1968" />
              <mxPoint x="330" y="1968" />
            </Array>
          </mxGeometry>
        </mxCell>
        <mxCell id="9SHDzmh_qrSMF86yC2MF-176" value="&lt;div style=&quot;direction: ltr;&quot;&gt;Спортсмен&lt;/div&gt;" style="html=1;points=[];perimeter=orthogonalPerimeter;rounded=0;shadow=0;comic=0;labelBackgroundColor=none;strokeWidth=1;fontFamily=Verdana;fontSize=12;align=center;direction=west;rotation=-90;" vertex="1" parent="1">
          <mxGeometry x="-215.39999999999998" y="1976.8" width="110.8" height="25" as="geometry" />
        </mxCell>
        <mxCell id="9SHDzmh_qrSMF86yC2MF-177" value="&lt;div style=&quot;direction: ltr;&quot;&gt;&lt;span style=&quot;background-color: initial;&quot;&gt;Статистика&lt;/span&gt;&lt;/div&gt;" style="html=1;points=[];perimeter=orthogonalPerimeter;rounded=0;shadow=0;comic=0;labelBackgroundColor=none;strokeWidth=1;fontFamily=Verdana;fontSize=12;align=center;direction=west;rotation=-90;" vertex="1" parent="1">
          <mxGeometry x="-184" y="1975.4" width="85.4" height="22.5" as="geometry" />
        </mxCell>
        <mxCell id="9SHDzmh_qrSMF86yC2MF-192" value="Протокол матча" style="shape=note;whiteSpace=wrap;html=1;size=14;verticalAlign=top;align=left;spacingTop=-6;rounded=0;shadow=0;comic=0;labelBackgroundColor=none;strokeWidth=1;fontFamily=Verdana;fontSize=12" vertex="1" parent="1">
          <mxGeometry x="480.3800000000001" y="2098" width="100" height="70" as="geometry" />
        </mxCell>
        <mxCell id="9SHDzmh_qrSMF86yC2MF-193" value="" style="endArrow=classic;html=1;rounded=0;entryX=0.01;entryY=0.614;entryDx=0;entryDy=0;entryPerimeter=0;" edge="1" parent="1">
          <mxGeometry width="50" height="50" relative="1" as="geometry">
            <mxPoint x="420" y="2167" as="sourcePoint" />
            <mxPoint x="481" y="2167" as="targetPoint" />
          </mxGeometry>
        </mxCell>
        <mxCell id="9SHDzmh_qrSMF86yC2MF-194" value="Печать" style="edgeLabel;html=1;align=center;verticalAlign=middle;resizable=0;points=[];" vertex="1" connectable="0" parent="9SHDzmh_qrSMF86yC2MF-193">
          <mxGeometry x="0.0164" relative="1" as="geometry">
            <mxPoint x="-3" as="offset" />
          </mxGeometry>
        </mxCell>
        <mxCell id="9SHDzmh_qrSMF86yC2MF-195" value="Методист" style="text;html=1;strokeColor=none;fillColor=none;align=center;verticalAlign=middle;whiteSpace=wrap;rounded=0;" vertex="1" parent="1">
          <mxGeometry x="-699" y="154" width="60" height="30" as="geometry" />
        </mxCell>
        <mxCell id="9SHDzmh_qrSMF86yC2MF-196" value="Последовательность&amp;nbsp; действий методиста на сайте ФХР" style="text;html=1;strokeColor=none;fillColor=none;align=center;verticalAlign=middle;whiteSpace=wrap;rounded=0;" vertex="1" parent="1">
          <mxGeometry x="-320" y="21" width="520" height="30" as="geometry" />
        </mxCell>
        <mxCell id="9SHDzmh_qrSMF86yC2MF-140" value="Заявка на &lt;br&gt;матч" style="shape=note;whiteSpace=wrap;html=1;size=14;verticalAlign=top;align=left;spacingTop=-6;rounded=0;shadow=0;comic=0;labelBackgroundColor=none;strokeWidth=1;fontFamily=Verdana;fontSize=12" vertex="1" parent="1">
          <mxGeometry x="229.99999999999997" y="1640" width="100" height="70" as="geometry" />
        </mxCell>
        <mxCell id="9SHDzmh_qrSMF86yC2MF-207" value="Добавление тренера в заявочный лист" style="html=1;verticalAlign=bottom;endArrow=block;curved=0;rounded=0;entryX=0.016;entryY=1.077;entryDx=0;entryDy=0;entryPerimeter=0;" edge="1" parent="1">
          <mxGeometry width="80" relative="1" as="geometry">
            <mxPoint x="166" y="1314" as="sourcePoint" />
            <mxPoint x="-463.00478999999996" y="1313.7696800000003" as="targetPoint" />
          </mxGeometry>
        </mxCell>
      </root>
    </mxGraphModel>
  </diagram>
</mxfile>
